# Blender v2.80 (sub 75) OBJ File: 'stairs.blend'
# www.blender.org
mtllib catwalks_stairs.mtl
o footing_4.003_Cube.010
v 0.062500 0.262500 1.000000
v 0.062500 0.293750 1.000000
v 0.062500 0.293750 0.750000
v 0.062500 0.262500 0.750000
v 0.937500 0.293750 0.750000
v 0.937500 0.262500 0.750000
v 0.937500 0.293750 1.000000
v 0.937500 0.262500 1.000000
v 0.031250 -0.000000 1.000000
v 0.031250 0.187500 1.000000
v 0.031250 1.187500 0.000000
v 0.031250 1.000000 0.000000
v 0.062500 1.187500 0.000000
v 0.062500 1.000000 0.000000
v 0.062500 0.187500 1.000000
v 0.062500 -0.000000 1.000000
v 0.937500 -0.000000 1.000000
v 0.937500 0.187500 1.000000
v 0.937500 1.187500 0.000000
v 0.937500 1.000000 0.000000
v 0.968750 1.187500 0.000000
v 0.968750 1.000000 0.000000
v 0.968750 0.187500 1.000000
v 0.968750 -0.000000 1.000000
v 0.937500 0.500000 1.000000
v 0.937500 0.562500 1.000000
v 0.937500 1.562500 0.000000
v 0.937500 1.500000 0.000000
v 1.000000 1.562500 0.000000
v 1.000000 1.500000 0.000000
v 1.000000 0.562500 1.000000
v 1.000000 0.500000 1.000000
v 0.000000 0.500000 1.000000
v 0.000000 0.562500 1.000000
v 0.000000 1.562500 0.000000
v 0.000000 1.500000 0.000000
v 0.062500 1.562500 0.000000
v 0.062500 1.500000 0.000000
v 0.062500 0.562500 1.000000
v 0.062500 0.500000 1.000000
v 0.000000 0.937500 1.000000
v 0.000000 1.000000 1.000000
v 0.000000 2.000000 0.000000
v 0.000000 1.937500 0.000000
v 0.062500 2.000000 0.000000
v 0.062500 1.937500 0.000000
v 0.062500 1.000000 1.000000
v 0.062500 0.937500 1.000000
v 0.937500 0.937500 1.000000
v 0.937500 1.000000 1.000000
v 0.937500 2.000000 0.000000
v 0.937500 1.937500 0.000000
v 1.000000 2.000000 0.000000
v 1.000000 1.937500 0.000000
v 1.000000 1.000000 1.000000
v 1.000000 0.937500 1.000000
v 0.968750 0.062500 1.000000
v 0.968750 0.093750 1.000000
v 0.968750 1.093750 0.000000
v 0.968750 1.062500 0.000000
v 1.000000 1.093750 0.000000
v 1.000000 1.062500 0.000000
v 1.000000 0.093750 1.000000
v 1.000000 0.062500 1.000000
v 0.000000 0.062500 1.000000
v 0.000000 0.093750 1.000000
v 0.000000 1.093750 0.000000
v 0.000000 1.062500 0.000000
v 0.031250 1.093750 0.000000
v 0.031250 1.062500 0.000000
v 0.031250 0.093750 1.000000
v 0.031250 0.062500 1.000000
v 0.062500 0.662500 0.500000
v 0.062500 0.693750 0.500000
v 0.062500 0.693750 0.250000
v 0.062500 0.662500 0.250000
v 0.937500 0.693750 0.250000
v 0.937500 0.662500 0.250000
v 0.937500 0.693750 0.500000
v 0.937500 0.662500 0.500000
v 0.062500 0.862500 0.250000
v 0.062500 0.893750 0.250000
v 0.062500 0.893750 0.000000
v 0.062500 0.862500 0.000000
v 0.937500 0.893750 0.000000
v 0.937500 0.862500 0.000000
v 0.937500 0.893750 0.250000
v 0.937500 0.862500 0.250000
v 0.062500 0.462500 0.750000
v 0.062500 0.493750 0.750000
v 0.062500 0.493750 0.500000
v 0.062500 0.462500 0.500000
v 0.937500 0.493750 0.500000
v 0.937500 0.462500 0.500000
v 0.937500 0.493750 0.750000
v 0.937500 0.462500 0.750000
vt 0.709799 0.770031
vt 0.696407 0.770031
vt 0.696407 0.662891
vt 0.709799 0.662891
vt 0.940326 1.000000
vt 0.926934 1.000000
vt 0.926933 0.625012
vt 0.940326 0.625012
vt 0.723191 0.770031
vt 0.709799 0.770031
vt 0.709799 0.662891
vt 0.723192 0.662891
vt 0.611457 0.374988
vt 0.624849 0.374988
vt 0.624849 0.749976
vt 0.611457 0.749976
vt 0.428558 0.374988
vt 0.428558 0.000000
vt 0.535697 0.000000
vt 0.535697 0.374988
vt 0.000000 0.749976
vt 0.000000 0.374988
vt 0.107139 0.374988
vt 0.107139 0.749976
vt 0.699656 0.662891
vt 0.642837 0.606072
vt 0.642837 0.000000
vt 0.699656 0.056819
vt 0.520007 0.803546
vt 0.520007 0.883900
vt 0.506615 0.883900
vt 0.506615 0.803546
vt 0.813295 0.606072
vt 0.756476 0.662891
vt 0.756476 0.056819
vt 0.813295 0.000000
vt 0.493222 0.883900
vt 0.493222 0.803546
vt 0.506615 0.803546
vt 0.506615 0.883900
vt 0.506615 0.374988
vt 0.520007 0.374988
vt 0.493222 0.374988
vt 0.506615 0.374988
vt 0.756475 0.662891
vt 0.699656 0.606072
vt 0.699656 0.000000
vt 0.756475 0.056819
vt 0.466437 0.455343
vt 0.466437 0.374988
vt 0.479830 0.374988
vt 0.479830 0.455343
vt 0.870114 0.606072
vt 0.813295 0.662891
vt 0.813295 0.056819
vt 0.870114 0.000000
vt 0.479830 0.883900
vt 0.479830 0.803546
vt 0.493222 0.803546
vt 0.493222 0.883900
vt 0.466437 0.883900
vt 0.493222 0.374988
vt 0.945873 0.625012
vt 0.926933 0.606072
vt 0.926934 0.000000
vt 0.945873 0.018940
vt 0.026785 0.776761
vt 0.026785 0.749976
vt 0.053570 0.749976
vt 0.053570 0.776761
vt 0.889054 0.018940
vt 0.907994 0.000000
vt 0.907994 0.606072
vt 0.889054 0.625012
vt 0.294634 0.830331
vt 0.294634 0.803546
vt 0.321418 0.803546
vt 0.321418 0.830331
vt 0.412868 0.374988
vt 0.439653 0.374988
vt 0.439653 0.803546
vt 0.412868 0.803546
vt 0.294634 0.374988
vt 0.321418 0.374988
vt 0.926933 0.625012
vt 0.907994 0.606072
vt 0.907994 0.000000
vt 0.926933 0.018940
vt 0.026785 0.749976
vt 0.026785 0.776761
vt 0.000000 0.776761
vt 0.000000 0.749976
vt 0.393928 0.981060
vt 0.374988 1.000000
vt 0.374988 0.393928
vt 0.393928 0.374988
vt 0.348203 0.830331
vt 0.348203 0.803546
vt 0.374988 0.803546
vt 0.374988 0.830331
vt 0.439653 0.374988
vt 0.466437 0.374988
vt 0.466437 0.803546
vt 0.439653 0.803546
vt 0.348203 0.374988
vt 0.374988 0.374988
vt 0.870114 0.000000
vt 0.889054 0.018940
vt 0.889054 0.625012
vt 0.870114 0.606072
vt 0.348203 0.803546
vt 0.348203 0.830331
vt 0.321419 0.830331
vt 0.321418 0.803546
vt 0.964813 0.606072
vt 0.945873 0.625012
vt 0.945873 0.018940
vt 0.964813 0.000000
vt 0.241064 0.830331
vt 0.241064 0.803546
vt 0.267849 0.803546
vt 0.267849 0.830331
vt 0.321418 0.374988
vt 0.348203 0.374988
vt 0.241064 0.374988
vt 0.267849 0.374988
vt 0.412868 1.000000
vt 0.393928 0.981060
vt 0.393928 0.374988
vt 0.412868 0.393928
vt 0.294634 0.803546
vt 0.294634 0.830331
vt 0.267849 0.830331
vt 0.267849 0.803546
vt 0.983753 0.606072
vt 0.964813 0.625012
vt 0.964813 0.018940
vt 0.983753 0.000000
vt 0.214279 0.830331
vt 0.214279 0.803546
vt 0.241064 0.803546
vt 0.241064 0.830331
vt 0.267849 0.374988
vt 0.294634 0.374988
vt 0.214279 0.374988
vt 0.241064 0.374988
vt 0.583047 0.990530
vt 0.573577 0.981060
vt 0.573577 0.374988
vt 0.583047 0.384458
vt 0.560185 0.803546
vt 0.560185 0.816938
vt 0.546792 0.816938
vt 0.546792 0.803546
vt 0.611457 0.981060
vt 0.601987 0.990530
vt 0.601987 0.384458
vt 0.611457 0.374988
vt 0.533400 0.816938
vt 0.533400 0.803546
vt 0.546792 0.803546
vt 0.546792 0.816938
vt 0.546792 0.374988
vt 0.560185 0.374988
vt 0.533400 0.374988
vt 0.546792 0.374988
vt 0.592517 0.990530
vt 0.583047 0.981060
vt 0.583047 0.374988
vt 0.592517 0.384458
vt 0.573577 0.803546
vt 0.573577 0.816938
vt 0.560185 0.816938
vt 0.560185 0.803546
vt 0.601987 0.981060
vt 0.592517 0.990530
vt 0.592517 0.384458
vt 0.601987 0.374988
vt 0.520007 0.816938
vt 0.520007 0.803546
vt 0.533400 0.803546
vt 0.533400 0.816938
vt 0.560185 0.374988
vt 0.573577 0.374988
vt 0.520007 0.374988
vt 0.533400 0.374988
vt 0.736584 0.770031
vt 0.723191 0.770031
vt 0.723191 0.662891
vt 0.736584 0.662891
vt 0.940326 0.625012
vt 0.953718 0.625012
vt 0.953718 1.000000
vt 0.940326 1.000000
vt 0.736584 0.662891
vt 0.749976 0.662891
vt 0.749976 0.770031
vt 0.736584 0.770031
vt 0.629444 0.374988
vt 0.642837 0.374988
vt 0.642837 0.749976
vt 0.629444 0.749976
vt 0.214279 0.374988
vt 0.214279 0.749976
vt 0.107139 0.749976
vt 0.107139 0.374988
vt 0.214279 0.000000
vt 0.214279 0.374988
vt 0.107140 0.374988
vt 0.107139 0.000000
vt 0.656229 0.662891
vt 0.669622 0.662891
vt 0.669622 0.770031
vt 0.656229 0.770031
vt 0.921386 1.000000
vt 0.907994 1.000000
vt 0.907994 0.625012
vt 0.921386 0.625012
vt 0.696407 0.770031
vt 0.683014 0.770031
vt 0.683014 0.662891
vt 0.696407 0.662891
vt 0.870114 0.625012
vt 0.883506 0.625012
vt 0.883507 1.000000
vt 0.870114 1.000000
vt 0.642837 0.000000
vt 0.642837 0.374988
vt 0.535697 0.374988
vt 0.535697 0.000000
vt 0.321418 0.000000
vt 0.321418 0.374988
vt 0.214279 0.374988
vt 0.214279 0.000000
vt 0.656229 0.770031
vt 0.642837 0.770031
vt 0.642837 0.662891
vt 0.656229 0.662891
vt 0.997145 0.749976
vt 0.983753 0.749976
vt 0.983753 0.374988
vt 0.997145 0.374988
vt 0.683014 0.770031
vt 0.669622 0.770031
vt 0.669622 0.662891
vt 0.683014 0.662891
vt 0.983753 0.000000
vt 0.997145 0.000000
vt 0.997145 0.374988
vt 0.983753 0.374988
vt 0.000000 0.374988
vt 0.000000 0.000000
vt 0.107139 0.000000
vt 0.107139 0.374988
vt 0.428558 0.000000
vt 0.428558 0.374988
vt 0.321418 0.374988
vt 0.321418 0.000000
vn -1.0000 0.0000 0.0000
vn 0.0000 0.0000 -1.0000
vn 1.0000 0.0000 0.0000
vn 0.0000 0.0000 1.0000
vn 0.0000 -1.0000 -0.0000
vn 0.0000 1.0000 0.0000
vn 0.0000 -0.7071 -0.7071
vn 0.0000 0.7071 0.7071
usemtl catwalks_stairs
s 1
f 1/1/1 2/2/1 3/3/1 4/4/1
f 4/5/2 3/6/2 5/7/2 6/8/2
f 6/9/3 5/10/3 7/11/3 8/12/3
f 8/13/4 7/14/4 2/15/4 1/16/4
f 4/17/5 6/18/5 8/19/5 1/20/5
f 5/21/6 3/22/6 2/23/6 7/24/6
f 9/25/1 10/26/1 11/27/1 12/28/1
f 12/29/2 11/30/2 13/31/2 14/32/2
f 14/33/3 13/34/3 15/35/3 16/36/3
f 16/37/4 15/38/4 10/39/4 9/40/4
f 12/29/7 14/32/7 16/41/7 9/42/7
f 13/43/8 11/44/8 10/39/8 15/38/8
f 17/45/1 18/46/1 19/47/1 20/48/1
f 20/49/2 19/50/2 21/51/2 22/52/2
f 22/53/3 21/54/3 23/55/3 24/56/3
f 24/57/4 23/58/4 18/59/4 17/60/4
f 20/49/7 22/52/7 24/57/7 17/61/7
f 21/51/8 19/62/8 18/59/8 23/58/8
f 25/63/1 26/64/1 27/65/1 28/66/1
f 28/67/2 27/68/2 29/69/2 30/70/2
f 30/71/3 29/72/3 31/73/3 32/74/3
f 32/75/4 31/76/4 26/77/4 25/78/4
f 28/79/7 30/80/7 32/81/7 25/82/7
f 29/83/8 27/84/8 26/77/8 31/76/8
f 33/85/1 34/86/1 35/87/1 36/88/1
f 36/89/2 35/90/2 37/91/2 38/92/2
f 38/93/3 37/94/3 39/95/3 40/96/3
f 40/97/4 39/98/4 34/99/4 33/100/4
f 36/101/7 38/102/7 40/103/7 33/104/7
f 37/105/8 35/106/8 34/99/8 39/98/8
f 41/107/1 42/108/1 43/109/1 44/110/1
f 44/111/2 43/112/2 45/113/2 46/114/2
f 46/115/3 45/116/3 47/117/3 48/118/3
f 48/119/4 47/120/4 42/121/4 41/122/4
f 44/111/7 46/114/7 48/123/7 41/124/7
f 45/125/8 43/126/8 42/121/8 47/120/8
f 49/127/1 50/128/1 51/129/1 52/130/1
f 52/131/2 51/132/2 53/133/2 54/134/2
f 54/135/3 53/136/3 55/137/3 56/138/3
f 56/139/4 55/140/4 50/141/4 49/142/4
f 52/131/7 54/134/7 56/143/7 49/144/7
f 53/145/8 51/146/8 50/141/8 55/140/8
f 57/147/1 58/148/1 59/149/1 60/150/1
f 60/151/2 59/152/2 61/153/2 62/154/2
f 62/155/3 61/156/3 63/157/3 64/158/3
f 64/159/4 63/160/4 58/161/4 57/162/4
f 60/151/7 62/154/7 64/163/7 57/164/7
f 61/165/8 59/166/8 58/161/8 63/160/8
f 65/167/1 66/168/1 67/169/1 68/170/1
f 68/171/2 67/172/2 69/173/2 70/174/2
f 70/175/3 69/176/3 71/177/3 72/178/3
f 72/179/4 71/180/4 66/181/4 65/182/4
f 68/171/7 70/174/7 72/183/7 65/184/7
f 69/185/8 67/186/8 66/181/8 71/180/8
f 73/187/1 74/188/1 75/189/1 76/190/1
f 76/191/2 75/192/2 77/193/2 78/194/2
f 78/195/3 77/196/3 79/197/3 80/198/3
f 80/199/4 79/200/4 74/201/4 73/202/4
f 76/203/5 78/204/5 80/205/5 73/206/5
f 77/207/6 75/208/6 74/209/6 79/210/6
f 81/211/1 82/212/1 83/213/1 84/214/1
f 84/215/2 83/216/2 85/217/2 86/218/2
f 86/219/3 85/220/3 87/221/3 88/222/3
f 88/223/4 87/224/4 82/225/4 81/226/4
f 84/227/5 86/228/5 88/229/5 81/230/5
f 85/231/6 83/232/6 82/233/6 87/234/6
f 89/235/1 90/236/1 91/237/1 92/238/1
f 92/239/2 91/240/2 93/241/2 94/242/2
f 94/243/3 93/244/3 95/245/3 96/246/3
f 96/247/4 95/248/4 90/249/4 89/250/4
f 92/251/5 94/252/5 96/253/5 89/254/5
f 93/255/6 91/256/6 90/257/6 95/258/6
